<?xml version="1.0" encoding="utf-8"?>
<!-- Generator: Adobe Illustrator 14.0.0, SVG Export Plug-In . SVG Version: 6.00 Build 43363)  -->
<!DOCTYPE svg PUBLIC "-//W3C//DTD SVG 1.1//EN" "http://www.w3.org/Graphics/SVG/1.1/DTD/svg11.dtd">
<svg version="1.1" id="Layer_1" xmlns="http://www.w3.org/2000/svg" xmlns:xlink="http://www.w3.org/1999/xlink" x="0px" y="0px"
	 width="70px" height="120px" viewBox="0 0 70 120" enable-background="new 0 0 70 120" xml:space="preserve">
<g enable-background="new    ">
	<path fill="#EEEEEE" d="M54.758,112.07H33.622V41.201C26.91,47.053,19.046,51.49,10.214,54.407L8.9,54.84V35.366l0.689-0.225
		c4.861-1.591,10.235-4.665,15.973-9.135c5.677-4.422,9.622-9.643,11.727-15.518l0.237-0.663h17.231V112.07L54.758,112.07z
		 M35.621,110.07h17.137V11.825H38.926c-2.287,5.967-6.367,11.266-12.134,15.759c-5.654,4.404-10.996,7.505-15.891,9.224V52.06
		c8.764-3.083,16.508-7.734,23.038-13.839l1.683-1.573V110.07L35.621,110.07z"/>
</g>
</svg>
