<?xml version="1.0" encoding="utf-8"?>
<!-- Generator: Adobe Illustrator 14.0.0, SVG Export Plug-In . SVG Version: 6.00 Build 43363)  -->
<!DOCTYPE svg PUBLIC "-//W3C//DTD SVG 1.1//EN" "http://www.w3.org/Graphics/SVG/1.1/DTD/svg11.dtd">
<svg version="1.1" id="Layer_1" xmlns="http://www.w3.org/2000/svg" xmlns:xlink="http://www.w3.org/1999/xlink" x="0px" y="0px"
	 width="70px" height="120px" viewBox="0 0 70 120" enable-background="new 0 0 70 120" xml:space="preserve">
<g enable-background="new    ">
	<path fill="#EEEEEE" d="M34.985,109.657c-8.632,0-15.901-2.528-21.605-7.516c-5.711-4.99-9.07-11.602-9.984-19.65l-0.112-0.986
		l19.24-2.334l0.124,0.988c0.518,4.147,1.913,7.343,4.146,9.497c2.239,2.161,4.877,3.211,8.065,3.211
		c3.416,0,6.216-1.263,8.558-3.859c2.335-2.591,3.519-6.167,3.519-10.629c0-4.206-1.129-7.566-3.354-9.987
		c-2.235-2.431-4.881-3.612-8.087-3.612c-2.184,0-4.848,0.436-7.919,1.296l-1.464,0.41l2.292-16.933l0.897,0.024
		c4.532,0.11,8.027-0.855,10.36-2.896s3.467-4.691,3.467-8.102c0-2.882-0.817-5.101-2.5-6.783c-1.684-1.682-3.881-2.5-6.72-2.5
		c-2.8,0-5.125,0.945-7.107,2.888c-1.98,1.941-3.206,4.858-3.642,8.667l-0.12,1.049l-18.5-3.143l0.206-1.012
		C5.907,32.01,7.7,27.349,10.071,23.89c2.398-3.497,5.779-6.281,10.05-8.274c4.24-1.979,9.049-2.982,14.292-2.982
		c9.003,0,16.338,2.924,21.8,8.691c4.52,4.74,6.812,10.183,6.812,16.176c0,7.847-3.969,14.295-11.804,19.196
		c4.456,1.391,8.142,3.876,10.98,7.409c3.326,4.143,5.013,9.201,5.013,15.035c0,8.411-3.114,15.68-9.256,21.604
		C51.829,106.658,44.099,109.657,34.985,109.657L34.985,109.657z M5.509,83.249c1.009,7.093,4.097,12.938,9.188,17.387
		c5.329,4.659,12.155,7.021,20.289,7.021c8.578,0,15.841-2.811,21.586-8.353c5.736-5.532,8.645-12.316,8.645-20.164
		c0-5.367-1.538-10.005-4.571-13.783c-3.034-3.775-7.146-6.241-12.222-7.329l-2.637-0.565l2.368-1.291
		c8.661-4.721,12.872-10.829,12.872-18.673c0-5.461-2.106-10.44-6.262-14.798c-5.072-5.355-11.919-8.069-20.351-8.069
		c-4.949,0-9.473,0.94-13.447,2.795c-3.943,1.84-7.054,4.395-9.247,7.593c-2.081,3.035-3.695,7.106-4.804,12.112l14.394,2.445
		c0.591-3.775,1.963-6.74,4.087-8.822c2.342-2.296,5.205-3.46,8.508-3.46c3.349,0,6.085,1.038,8.134,3.085
		c2.048,2.048,3.086,4.806,3.086,8.198c0,3.966-1.396,7.199-4.15,9.607c-2.559,2.24-6.203,3.383-10.831,3.4l-1.648,12.177
		c2.645-0.653,4.993-0.984,6.997-0.984c3.744,0,6.961,1.433,9.56,4.259c2.576,2.802,3.882,6.618,3.882,11.341
		c0,4.972-1.357,8.998-4.033,11.968c-2.705,3-6.084,4.521-10.043,4.521c-3.68,0-6.861-1.269-9.454-3.771
		c-2.384-2.301-3.929-5.561-4.6-9.702L5.509,83.249L5.509,83.249z"/>
</g>
</svg>
