<?xml version="1.0" encoding="utf-8"?>
<!-- Generator: Adobe Illustrator 14.0.0, SVG Export Plug-In . SVG Version: 6.00 Build 43363)  -->
<!DOCTYPE svg PUBLIC "-//W3C//DTD SVG 1.1//EN" "http://www.w3.org/Graphics/SVG/1.1/DTD/svg11.dtd">
<svg version="1.1" id="Layer_1" xmlns="http://www.w3.org/2000/svg" xmlns:xlink="http://www.w3.org/1999/xlink" x="0px" y="0px"
	 width="70px" height="120px" viewBox="0 0 70 120" enable-background="new 0 0 70 120" xml:space="preserve">
<g enable-background="new    ">
	<path fill="#EEEEEE" d="M67.264,108.07H2.625l0.12-1.107c0.689-6.379,2.786-12.507,6.232-18.214
		c3.418-5.663,10.226-13.242,20.234-22.529c7.946-7.402,12.874-12.472,14.644-15.065c2.325-3.49,3.508-6.977,3.508-10.354
		c0-3.684-0.979-6.532-2.912-8.465c-1.934-1.933-4.676-2.913-8.148-2.913c-3.477,0-6.15,1.002-8.173,3.064
		c-2.018,2.057-3.204,5.602-3.524,10.537l-0.067,1.033L4.732,42.076l0.108-1.001C5.922,31.021,9.405,23.678,15.192,19.25
		c5.739-4.391,12.992-6.617,21.555-6.617c9.403,0,16.916,2.59,22.332,7.699c5.431,5.126,8.185,11.585,8.185,19.199
		c0,4.296-0.782,8.446-2.324,12.333c-1.53,3.859-3.98,7.947-7.284,12.152c-2.179,2.776-6.146,6.811-11.79,11.989
		c-5.578,5.116-9.152,8.552-10.624,10.21c-0.987,1.112-1.853,2.213-2.585,3.287h34.607V108.07L67.264,108.07z M4.868,106.07h60.396
		V91.503H29.11l0.868-1.501c0.958-1.655,2.226-3.376,3.768-5.114c1.538-1.733,5.06-5.12,10.768-10.356
		c5.564-5.104,9.456-9.058,11.568-11.75c3.185-4.053,5.539-7.974,6.998-11.654c1.449-3.652,2.184-7.554,2.184-11.596
		c0-7.042-2.543-13.012-7.558-17.745c-5.031-4.747-12.083-7.154-20.959-7.154c-8.114,0-14.958,2.088-20.34,6.206
		c-5.145,3.937-8.326,10.478-9.462,19.449l15.745,1.575c0.454-4.9,1.801-8.522,4.012-10.775c2.385-2.431,5.615-3.664,9.601-3.664
		c4.022,0,7.239,1.177,9.562,3.499c2.321,2.323,3.498,5.646,3.498,9.879c0,3.779-1.295,7.639-3.85,11.473
		c-1.887,2.763-6.771,7.801-14.94,15.411c-9.873,9.161-16.562,16.596-19.884,22.098C7.595,94.906,5.639,100.381,4.868,106.07
		L4.868,106.07z"/>
</g>
</svg>
