<?xml version="1.0" encoding="utf-8"?>
<!-- Generator: Adobe Illustrator 14.0.0, SVG Export Plug-In . SVG Version: 6.00 Build 43363)  -->
<!DOCTYPE svg PUBLIC "-//W3C//DTD SVG 1.1//EN" "http://www.w3.org/Graphics/SVG/1.1/DTD/svg11.dtd">
<svg version="1.1" id="Layer_1" xmlns="http://www.w3.org/2000/svg" xmlns:xlink="http://www.w3.org/1999/xlink" x="0px" y="0px"
	 width="70px" height="120px" viewBox="0 0 70 120" enable-background="new 0 0 70 120" xml:space="preserve">
<g enable-background="new    ">
	<path fill="#EEEEEE" d="M34.349,109.657c-8.795,0-16.083-2.408-21.659-7.157C7.104,97.744,3.721,91.276,2.635,83.274l-0.139-1.023
		l19.773-2.048l0.123,0.971c0.476,3.766,1.889,6.776,4.2,8.949c2.325,2.188,4.925,3.252,7.948,3.252c3.449,0,6.294-1.37,8.697-4.188
		c2.41-2.825,3.633-7.209,3.633-13.03c0-5.432-1.206-9.532-3.585-12.188c-2.385-2.658-5.412-3.951-9.253-3.951
		c-4.8,0-9.184,2.174-13.03,6.46l-0.357,0.398L4.608,64.556l9.488-50.272h48.992v18.694H29.284L26.97,46.073
		c3.549-1.509,7.197-2.273,10.87-2.273c8.16,0,15.174,3.008,20.845,8.942c5.66,5.922,8.529,13.693,8.529,23.098
		c0,7.843-2.309,14.941-6.861,21.098C54.131,105.377,45.381,109.657,34.349,109.657L34.349,109.657z M4.77,84.026
		c1.158,7.028,4.255,12.728,9.216,16.95c5.205,4.433,12.055,6.681,20.362,6.681c10.362,0,18.57-4.007,24.396-11.908
		c4.293-5.806,6.47-12.504,6.47-19.909c0-8.873-2.684-16.179-7.975-21.716C51.959,48.6,45.433,45.8,37.84,45.8
		c-3.971,0-7.92,0.968-11.74,2.878l-1.778,0.889l3.285-18.589h33.481V16.283H15.754L6.96,62.876l12.916,1.869
		c4.157-4.464,8.917-6.727,14.155-6.727c4.38,0,7.994,1.553,10.742,4.616c2.718,3.034,4.096,7.584,4.096,13.522
		c0,6.311-1.383,11.131-4.111,14.328c-2.768,3.244-6.205,4.89-10.219,4.89c-3.507,0-6.642-1.277-9.318-3.795
		c-2.453-2.306-4.021-5.394-4.67-9.188L4.77,84.026L4.77,84.026z"/>
</g>
</svg>
