<?xml version="1.0" encoding="utf-8"?>
<!-- Generator: Adobe Illustrator 14.0.0, SVG Export Plug-In . SVG Version: 6.00 Build 43363)  -->
<!DOCTYPE svg PUBLIC "-//W3C//DTD SVG 1.1//EN" "http://www.w3.org/Graphics/SVG/1.1/DTD/svg11.dtd">
<svg version="1.1" id="Layer_2" xmlns="http://www.w3.org/2000/svg" xmlns:xlink="http://www.w3.org/1999/xlink" x="0px" y="0px"
	 width="930.5px" height="375.43px" viewBox="0 0 930.5 375.43" enable-background="new 0 0 930.5 375.43" xml:space="preserve">
<g>
	<path fill="#E0EEEE" d="M215.299,8.648h43.336l56.552,83.094V8.648h43.748v150.19h-43.747l-56.246-82.465v82.465h-43.644
		L215.299,8.648L215.299,8.648z"/>
	<path fill="#E0EEEE" d="M466.148,104.438V73.19h71.715v64.032c-13.729,9.358-25.869,15.727-36.422,19.106
		c-10.555,3.381-23.068,5.07-37.547,5.07c-17.825,0-32.358-3.039-43.594-9.117s-19.942-15.128-26.125-27.148
		c-6.182-12.021-9.271-25.817-9.271-41.39c0-16.393,3.381-30.649,10.143-42.773c6.764-12.124,16.664-21.326,29.71-27.61
		c10.179-4.849,23.872-7.272,41.083-7.272c16.598,0,29.01,1.503,37.24,4.508c8.229,3.007,15.061,7.667,20.49,13.985
		c5.428,6.317,9.51,14.327,12.24,24.024l-44.771,7.991c-1.844-5.669-4.969-10.005-9.375-13.011
		c-4.404-3.005-10.025-4.508-16.853-4.508c-10.179,0-18.288,3.533-24.331,10.604c-6.046,7.069-9.069,18.253-9.069,33.553
		c0,16.256,3.057,27.866,9.17,34.833c6.112,6.967,14.632,10.45,25.562,10.45c5.189,0,10.145-0.751,14.855-2.254
		c4.713-1.501,10.105-4.062,16.188-7.683V104.44h-31.043L466.148,104.438L466.148,104.438z"/>
	<path fill="#E0EEEE" d="M559.582,83.847c0-24.519,6.826-43.609,20.49-57.27c13.658-13.66,32.68-20.49,57.061-20.49
		c24.998,0,44.26,6.71,57.783,20.131c13.521,13.421,20.287,32.221,20.287,56.398c0,17.554-2.957,31.947-8.863,43.183
		c-5.908,11.235-14.443,19.978-25.611,26.228c-11.166,6.25-25.082,9.374-41.748,9.374c-16.938,0-30.957-2.696-42.055-8.093
		c-11.102-5.396-20.098-13.933-26.998-25.612C563.031,116.016,559.582,101.4,559.582,83.847z M605.992,84.051
		c0,15.162,2.814,26.058,8.451,32.681c5.635,6.625,13.301,9.938,23,9.938c9.971,0,17.688-3.244,23.152-9.733
		c5.463-6.487,8.195-18.134,8.195-34.936c0-14.139-2.854-24.468-8.557-30.991c-5.703-6.522-13.439-9.784-23.203-9.784
		c-9.359,0-16.869,3.313-22.537,9.938C608.826,57.791,605.992,68.752,605.992,84.051z"/>
</g>
<g>
	<path fill="#E0EEEE" d="M5.25,216.589h68.949c13.59,0,24.571,1.844,32.938,5.531c8.365,3.688,15.281,8.979,20.746,15.88
		c5.464,6.898,9.425,14.925,11.884,24.075c2.459,9.152,3.688,18.853,3.688,29.098c0,16.051-1.828,28.498-5.481,37.343
		c-3.654,8.846-8.726,16.256-15.214,22.23c-6.489,5.976-13.456,9.955-20.899,11.935c-10.178,2.733-19.398,4.101-27.662,4.101H5.25
		V216.589z M51.659,250.603v82.062h11.372c9.697,0,16.597-1.075,20.695-3.229c4.098-2.15,7.308-5.908,9.63-11.271
		c2.321-5.359,3.483-14.053,3.483-26.072c0-15.916-2.597-26.809-7.786-32.683c-5.191-5.873-13.797-8.812-25.817-8.812H51.659
		V250.603z"/>
	<path fill="#E0EEEE" d="M169.682,216.589h46.513v150.189h-46.513V216.589L169.682,216.589z"/>
	<path fill="#E0EEEE" d="M324.996,312.38v-31.248h71.715v64.03c-13.729,9.359-25.869,15.729-36.421,19.108
		c-10.553,3.379-23.068,5.071-37.548,5.071c-17.826,0-32.358-3.038-43.594-9.118c-11.235-6.078-19.943-15.127-26.125-27.148
		s-9.271-25.816-9.271-41.391c0-16.391,3.381-30.647,10.143-42.771c6.763-12.122,16.664-21.326,29.71-27.609
		c10.176-4.85,23.871-7.271,41.083-7.271c16.598,0,29.009,1.502,37.239,4.508c8.23,3.008,15.061,7.668,20.49,13.983
		c5.43,6.319,9.51,14.327,12.242,24.025l-44.771,7.99c-1.844-5.668-4.969-10.005-9.374-13.012
		c-4.404-3.005-10.024-4.508-16.853-4.508c-10.179,0-18.288,3.532-24.332,10.604c-6.044,7.067-9.067,18.254-9.067,33.553
		c0,16.256,3.056,27.866,9.169,34.833c6.112,6.966,14.633,10.446,25.562,10.446c5.188,0,10.143-0.747,14.854-2.254
		c4.714-1.502,10.107-4.062,16.188-7.683V312.38h-31.042v-0.002h0.002V312.38z"/>
	<path fill="#E0EEEE" d="M426.113,216.589h46.516v150.189h-46.516V216.589z"/>
	<path fill="#E0EEEE" d="M495.37,216.589h141.07v37.087h-47.331V366.78h-46.408V253.676h-47.332L495.37,216.589L495.37,216.589z"/>
	<path fill="#E0EEEE" d="M735.542,341.987h-52.689l-7.322,24.793h-47.387l56.452-150.19h50.622l56.437,150.19h-48.601
		L735.542,341.987z M725.915,309.511l-16.578-53.991l-16.404,53.991H725.915z"/>
	<path fill="#E0EEEE" d="M806.408,216.589h46.409v113.207h72.433v36.982H806.408V216.589z"/>
</g>
</svg>
